<svg width="48" height="48" viewBox="0 0 48 48" fill="none" xmlns="http://www.w3.org/2000/svg">
<rect x="-0.000976562" width="48" height="48" rx="24" fill="black"/>
<path d="M36.2564 23.7858L14.8005 14.3522C14.4868 14.2143 14.1562 14.5089 14.2573 14.8364L16.5028 22.1106C16.548 22.257 16.6728 22.3647 16.8242 22.388L30.8577 24.5473C30.8778 24.5504 30.8981 24.552 30.9185 24.552H36.0954C36.5283 24.552 36.6527 23.9601 36.2564 23.7858Z" fill="white" stroke="white" stroke-width="0.1"/>
<path d="M36.2564 24.5544L14.8005 33.988C14.4868 34.1259 14.1562 33.8313 14.2573 33.5039L16.5028 26.2296C16.548 26.0833 16.6728 25.9756 16.8242 25.9523L30.8577 23.7929C30.8778 23.7898 30.8981 23.7883 30.9185 23.7883H36.0954C36.5283 23.7883 36.6527 24.3802 36.2564 24.5544Z" fill="white" stroke="white" stroke-width="0.1"/>
</svg>
