<svg width="711" height="627" viewBox="0 0 711 627" fill="none" xmlns="http://www.w3.org/2000/svg">
<path d="M132.067 535.173L136.003 550.894L156.366 550.059L176.785 575.78L196.683 576.648L200.538 596.008L216.403 604.924L227.473 607.953L244.574 619.039L256.423 615.874L273.525 626.96L279.726 617.674L316.348 617.626L312.485 608.332L319.843 604.854L330.92 597.817L330.077 587.519L325.908 572.65L337.299 561.123C335.677 557.018 332.525 548.468 332.897 547.105C333.363 545.402 346.762 539.916 347.694 536.51L352.121 520.332L366.291 518.718L382.469 523.144L396.02 520.445L397.651 514.485L410.737 513.489L424.361 517.216L426.923 507.85L431.574 500.886L434.587 509.947C438.078 500.53 444.598 481.385 442.74 480.145C440.883 478.904 436.397 473.223 434.386 470.537L449.729 454.6C452.624 449.596 458.506 439.246 458.879 437.884C459.252 436.522 464.197 436.288 466.623 436.342L468.029 421.168L476.239 417.922L482.576 431.554L505.566 437.844L508.129 428.478L520.893 442.038L539.498 414.18L529.915 392.338C530.228 387.848 531.351 377.722 533.337 373.14C535.819 367.412 547.588 367.887 549.989 365.798C551.911 364.127 556.777 365.52 558.97 366.425L563.927 365.035L556.97 350.319L580.82 346.777L601.256 352.368L604.822 346.022L614.968 342.391L619.378 346.343L623.644 337.443L621.868 330.551L619.322 319.787L621.957 316.847L622.889 313.441L625.146 298.499L632.657 297.809C632.4 296.518 631.979 293.596 632.352 292.234C632.725 290.872 631.324 287.071 630.577 285.342L630.505 278.915L646.683 283.342C649.408 284.087 653.447 280.921 655.126 279.245L665.271 275.614L669.601 283.205L679.674 273.148L687.185 272.458L679.064 261.999L680.55 243.186L669.634 242.945L660.894 231.401L664.38 228.694L663.457 222.035L662.147 213.44C664.239 212.486 669.056 210.937 671.594 212.363C674.132 213.79 674.408 210.998 674.229 209.423L680.816 202.073C681.847 203.881 684.141 206.644 685.073 203.238C686.005 199.832 689.13 197.331 690.576 196.507L702.577 196.129L708.152 195.824L704.208 190.169L710.024 178.947L697.565 170.962L693.163 156.945L687.203 155.314L679.531 163.282L664.285 155.45L660.493 152.582L667.546 143.529L649.513 135.85L629.623 124.916L601.275 138.21L583.924 148.107L572.003 144.845L568.525 137.487L547.238 131.663L541.591 125.542L548.796 119.276L524.955 112.753L520.304 119.717L494.839 109.09L480.436 111.555L464.957 104.575L457.294 102.478L459.687 110.455L454.498 112.696L447.767 107.193C448.075 109.413 448.364 115.044 447.06 119.813L450.538 127.171L449.911 136.152L452.61 149.703L441.541 146.675L436.978 139.935L431.323 143.879L433.018 154.41L428.76 153.245L421.258 143.871L406.702 143.549L404.605 151.213L383.631 140.898L387.592 126.423L377.832 131.99L367.67 155.751L360.536 168.443L359.926 157.293L351.492 151.324L348.56 138.624L342.599 136.994L338.583 124.912L349.733 124.302L351.83 116.638L342.777 109.585L348.046 103.705L349.067 86.5951L340.793 73.3488L323.217 74.0313C319.142 71.0858 310.65 65.1017 309.288 64.729C307.926 64.3562 300.511 67.8188 296.973 69.5967L300.452 76.9549L297.889 86.3212L292.009 81.0516L292.78 84.9234L285.036 86.4656L267.163 71.5081L265.533 77.4685L257.026 65.0736L262.914 60.278L252.544 54.695L221.039 46.0752L215.536 52.8067L211.672 43.5125L217.328 39.5685L218.027 37.014L206.957 33.9855L197.519 24.9965L195.189 33.5113L186.979 36.7565L191.462 47.1351L182.553 52.9347L184.248 63.4659L184.464 82.7448L181.669 92.9627L186.223 109.768L173.523 112.699L156.493 108.04L153.465 119.109L129.382 123.503L120.008 131.006L101.275 125.88L97.3227 130.29L98.7041 145.312L88.2369 163.498L86.3568 190.441L68.4756 185.548L61.3504 188.175L62.8844 205.984L47.8629 207.365L52.0235 232.299L46.4405 242.67L35.3712 239.641L33.0415 248.156L26.2296 246.292L20.6466 256.663L33.4189 260.157L31.0892 268.672L55.8545 281.855L57.9348 294.322L49.0344 290.056L43.0658 298.49L52.6569 310.267L40.6394 330.775L48.9131 344.021L41.9404 349.435L31.7948 353.066L41.217 382.185L22.0102 388.828L2.63444 412.814L0.609927 426.904L8.73104 437.363L13.6874 435.973L22.7485 432.961L23.0537 438.536L36.5249 439.476L45.3531 437.315L39.7619 457.751L44.18 451.638L57.8038 455.365L60.3664 445.999L75.1632 435.404C76.8662 435.87 81.5269 436.23 86.5459 433.942C91.5649 431.654 94.5762 429.122 95.4545 428.142L97.5512 420.479C99.5888 421.952 104.315 424.526 106.917 423.042C109.831 426.889 115.858 435.189 116.661 437.605C117.464 440.022 119.984 445.531 121.143 447.984L110.604 459.744L128.485 464.636L137.313 462.476L129.393 491.426L134.959 501.186L127.737 527.582L133.698 529.213L132.067 535.173Z" fill="#DADADA"/>
<path d="M201.165 15.0117L217.568 28.6518L225.93 28.1941L231.047 19.5267L218.822 10.6903L201.165 15.0117Z" fill="#DADADA"/>
<path d="M383.558 87.6457L380.258 99.7057L386.997 95.1431L396.838 85.9375L383.558 87.6457Z" fill="#DADADA"/>
<path d="M426.302 128.778L423.041 140.699L431.636 139.389L433.966 130.875L426.302 128.778Z" fill="#DADADA"/>
<path d="M464.909 67.9533L448.169 88.9992L447.703 90.7022L465.198 93.6586L483.545 96.8479L474.195 74.1548L464.909 67.9533Z" fill="#DADADA"/>
<path d="M402.743 61.012L413.572 74.9573L418.374 70.7801L417.299 61.3336L403.675 57.6061C401.632 57.047 402.203 59.6437 402.743 61.012Z" fill="#DADADA"/>
<path d="M411.13 30.3586L415.467 27.8843L418.263 17.6665L412.616 11.5453L405.948 22.5342L411.13 30.3586Z" fill="#DADADA"/>
<path d="M423.284 32.7677L430.972 4.6687L442.587 2.3554L454.886 17.6181L451.416 0.194692L463.336 3.45624L474.092 10.9752L490.423 18.189L482.133 25.0731L491.186 32.1261L479.104 36.1424L468.437 14.9193L464.252 20.1808L468.734 30.5593L478.173 39.5483L465.007 44.1831L453.785 38.3671L437.903 49.5808L423.284 32.7677Z" fill="#DADADA"/>
<path d="M497.925 27.5637L517.195 37.4124L539.422 29.7654L534.627 23.8772L517.284 23.7082L517.059 14.4945L504.512 20.2137L501.419 14.7915L497.925 27.5637Z" fill="#DADADA"/>
<path d="M300.622 59.6128L317.651 64.2722L319.049 59.1633L308.831 56.3676L300.622 59.6128Z" fill="#DADADA"/>
</svg>
