<svg width="22" height="18" viewBox="0 0 22 18" fill="none" xmlns="http://www.w3.org/2000/svg">
  <path d="M19.4 16.5L4.4 1.5" stroke="black" stroke-width="1.5" stroke-linecap="round"/>
  <path d="M9.2 7.44C8.83 7.85 8.6 8.39 8.6 8.99C8.6 10.28 9.67 11.32 11 11.32C11.61 11.32 12.17 11.1 12.59 10.73" stroke="black" stroke-width="1.5" stroke-linecap="round"/>
  <path d="M19.44 11.32C20.27 10.08 20.6 9.08 20.6 9.08C20.6 9.08 18.42 2.1 11 2.1C10.58 2.1 10.18 2.12 9.8 2.16" stroke="black" stroke-width="1.5" stroke-linecap="round"/>
  <path d="M16.4 14.35C15.02 15.23 13.25 15.85 11 15.81C3.68 15.69 1.4 9.08 1.4 9.08C1.4 9.08 2.46 5.7 5.6 3.64" stroke="black" stroke-width="1.5" stroke-linecap="round"/>
</svg>
