<svg width="22" height="18" viewBox="0 0 22 18" fill="none" xmlns="http://www.w3.org/2000/svg">
<path d="M19.4004 16.5L4.40039 1.5M9.20039 7.44157C8.82697 7.85326 8.60039 8.39403 8.60039 8.98631C8.60039 10.2761 9.67491 11.3217 11.0004 11.3217C11.6115 11.3217 12.1693 11.0994 12.593 10.7334M19.4392 11.3217C20.2654 10.0848 20.6004 9.07613 20.6004 9.07613C20.6004 9.07613 18.4158 2.1 11.0004 2.1C10.5841 2.1 10.1843 2.12199 9.80039 2.16349M16.4004 14.3494C15.023 15.2281 13.2497 15.8495 11.0004 15.8127C3.67731 15.693 1.40039 9.07613 1.40039 9.07613C1.40039 9.07613 2.45825 5.69808 5.60039 3.64332" stroke="black" stroke-width="1.5" stroke-linecap="round"/>
</svg>
