<svg width="24" height="18" viewBox="0 0 24 18" fill="none" xmlns="http://www.w3.org/2000/svg">
<path d="M21.625 17L4.4375 1M9.9375 7.33768C9.50963 7.77681 9.25 8.35364 9.25 8.98539C9.25 10.3612 10.4812 11.4764 12 11.4764C12.7003 11.4764 13.3394 11.2393 13.8249 10.8489M21.6695 11.4764C22.6162 10.1571 23 9.0812 23 9.0812C23 9.0812 20.4968 1.64 12 1.64C11.523 1.64 11.0649 1.66345 10.625 1.70773M18.1875 14.7061C16.6092 15.6434 14.5774 16.3062 12 16.2669C3.60897 16.1392 1 9.0812 1 9.0812C1 9.0812 2.21213 5.47795 5.8125 3.28621" stroke="#438EFF" stroke-width="1.5" stroke-linecap="round"/>
</svg>
