<svg width="200" height="31" viewBox="0 0 200 31" fill="none" xmlns="http://www.w3.org/2000/svg">
<path fill-rule="evenodd" clip-rule="evenodd" d="M56.0244 11.3974H35.9659C31.434 11.3974 27.7601 15.0712 27.7601 19.6031V28.2647H56.0244C60.5563 28.2647 64.2302 24.5909 64.2302 20.059V19.6031C64.2302 15.0712 60.5563 11.3974 56.0244 11.3974ZM35.9659 8.6621C29.9233 8.6621 25.0249 13.5606 25.0249 19.6031V31H56.0244C62.067 31 66.9654 26.1015 66.9654 20.059V19.6031C66.9654 13.5606 62.067 8.6621 56.0244 8.6621H35.9659Z" fill="url(#paint0_linear_426_1916)"/>
<path d="M40.9844 20.0601C40.9844 21.8225 39.5557 23.2512 37.7933 23.2512C36.0309 23.2512 34.6021 21.8225 34.6021 20.0601C34.6021 18.2977 36.0309 16.8689 37.7933 16.8689C39.5557 16.8689 40.9844 18.2977 40.9844 20.0601Z" fill="url(#paint1_linear_426_1916)"/>
<path d="M56.9354 20.0601C56.9354 21.8225 55.5067 23.2512 53.7443 23.2512C51.9819 23.2512 50.5531 21.8225 50.5531 20.0601C50.5531 18.2977 51.9819 16.8689 53.7443 16.8689C55.5067 16.8689 56.9354 18.2977 56.9354 20.0601Z" fill="url(#paint2_linear_426_1916)"/>
<path d="M49.1829 3.19113C49.1829 4.95354 47.7542 6.38226 45.9918 6.38226C44.2294 6.38226 42.8006 4.95354 42.8006 3.19113C42.8006 1.42872 44.2294 0 45.9918 0C47.7542 0 49.1829 1.42872 49.1829 3.19113Z" fill="url(#paint3_linear_426_1916)"/>
<path d="M44.6291 5.01534H47.3644V7.29472H44.6291V5.01534Z" fill="url(#paint4_linear_426_1916)"/>
<path d="M21.6393 30.9834C18.7535 27.3907 15.2905 24.4352 11.2503 21.8223V0.10249C16.06 1.57225 21.6393 6.20686 21.6393 14.7051V30.9834Z" fill="url(#paint5_linear_426_1916)"/>
<path d="M9.90089 22.778V5.83404C9.00789 4.19642 6.55145 2.55879 5.19118 2.21792V24.9017C9.70465 26.1512 14.7614 28.092 19.8636 30.9833C17.3125 28.092 13.2369 24.7056 9.90089 22.778Z" fill="url(#paint6_linear_426_1916)"/>
<path d="M3.58792 25.6082C6.62727 26.4202 12.007 28.0594 18.0857 30.9827C10.9939 28.709 6.24113 27.5411 0 26.6548V4.89775C1.05276 5.1317 2.80736 5.95051 3.58792 6.8863V25.6082Z" fill="url(#paint7_linear_426_1916)"/>
<path d="M184.431 22.3372C184.431 21.2782 184.619 20.296 184.995 19.3907C185.371 18.4854 185.883 17.6996 186.532 17.0335C187.199 16.3673 187.976 15.8463 188.864 15.4705C189.769 15.0776 190.743 14.8812 191.785 14.8812C192.81 14.8812 193.766 15.0776 194.655 15.4705C195.543 15.8634 196.303 16.4356 196.935 17.1872V10.423H199.318V29.3576H197.012V27.0517C196.294 27.9911 195.543 28.6659 194.757 29.0758C193.971 29.4858 193.023 29.6907 191.913 29.6907C190.854 29.6907 189.863 29.5028 188.941 29.1271C188.036 28.7513 187.25 28.2388 186.584 27.5897C185.917 26.9236 185.388 26.1464 184.995 25.2581C184.619 24.3528 184.431 23.3792 184.431 22.3372ZM186.865 22.2603C186.865 22.9948 186.994 23.6866 187.25 24.3357C187.523 24.9677 187.89 25.5229 188.352 26.0012C188.83 26.4624 189.385 26.8296 190.017 27.1029C190.649 27.3591 191.324 27.4872 192.041 27.4872C192.741 27.4872 193.391 27.3506 193.988 27.0773C194.603 26.804 195.133 26.4367 195.577 25.9755C196.038 25.4973 196.397 24.9421 196.653 24.3101C196.926 23.6781 197.063 23.0034 197.063 22.286C197.063 21.5515 196.926 20.8682 196.653 20.2362C196.397 19.6042 196.03 19.0576 195.551 18.5964C195.09 18.1181 194.535 17.7509 193.886 17.4947C193.254 17.2214 192.571 17.0847 191.836 17.0847C191.153 17.0847 190.504 17.2214 189.889 17.4947C189.291 17.768 188.761 18.1352 188.3 18.5964C187.856 19.0576 187.506 19.6042 187.25 20.2362C186.994 20.8682 186.865 21.5429 186.865 22.2603Z" fill="black"/>
<path d="M182.217 24.8739C181.977 25.5913 181.627 26.2489 181.166 26.8468C180.722 27.4275 180.201 27.9314 179.603 28.3585C179.005 28.7855 178.348 29.1186 177.63 29.3577C176.93 29.5798 176.195 29.6908 175.427 29.6908C174.385 29.6908 173.403 29.5029 172.48 29.1271C171.575 28.7342 170.781 28.2047 170.097 27.5385C169.414 26.8724 168.876 26.0952 168.483 25.2069C168.107 24.3016 167.919 23.328 167.919 22.286C167.919 21.2612 168.107 20.3046 168.483 19.4164C168.876 18.5281 169.397 17.7509 170.046 17.0848C170.712 16.4186 171.489 15.8976 172.378 15.5218C173.266 15.146 174.222 14.9581 175.247 14.9581C176.272 14.9581 177.229 15.1546 178.117 15.5474C179.022 15.9232 179.808 16.4442 180.474 17.1104C181.14 17.7595 181.661 18.5281 182.037 19.4164C182.43 20.3046 182.627 21.2612 182.627 22.286C182.627 22.6277 182.592 22.9437 182.524 23.234H170.43C170.482 23.849 170.644 24.4127 170.917 24.9251C171.208 25.4375 171.566 25.8902 171.993 26.2831C172.437 26.6589 172.95 26.9578 173.531 27.1798C174.111 27.3848 174.726 27.4873 175.375 27.4873C176.315 27.4873 177.16 27.2567 177.912 26.7955C178.681 26.3343 179.27 25.6938 179.68 24.8739H182.217ZM180.192 21.1074C179.902 19.8605 179.321 18.8954 178.45 18.2121C177.596 17.5118 176.537 17.1616 175.273 17.1616C174.043 17.1616 172.993 17.5203 172.121 18.2378C171.25 18.9381 170.687 19.8946 170.43 21.1074H180.192Z" fill="black"/>
<path d="M145.374 10.423H148.962L155.239 25.9499L161.516 10.423H165.078V29.3577H162.644V13.3951L156.238 29.3577H154.188L147.809 13.3951V29.3577H145.374V10.423Z" fill="black"/>
<path d="M137.057 15.2912H139.363V17.0847C139.756 16.3331 140.235 15.8036 140.798 15.4961C141.379 15.1716 142.156 14.9922 143.13 14.9581V17.2897C140.687 17.4776 139.466 18.8099 139.466 21.2867V29.3576H137.057V15.2912Z" fill="black"/>
<path d="M134.254 24.8739C134.015 25.5913 133.665 26.2489 133.204 26.8468C132.76 27.4275 132.239 27.9314 131.641 28.3585C131.043 28.7855 130.385 29.1186 129.668 29.3577C128.968 29.5798 128.233 29.6908 127.465 29.6908C126.423 29.6908 125.44 29.5029 124.518 29.1271C123.613 28.7342 122.818 28.2047 122.135 27.5385C121.452 26.8724 120.914 26.0952 120.521 25.2069C120.145 24.3016 119.957 23.328 119.957 22.286C119.957 21.2612 120.145 20.3046 120.521 19.4164C120.914 18.5281 121.435 17.7509 122.084 17.0848C122.75 16.4186 123.527 15.8976 124.416 15.5218C125.304 15.146 126.26 14.9581 127.285 14.9581C128.31 14.9581 129.267 15.1546 130.155 15.5474C131.06 15.9232 131.846 16.4442 132.512 17.1104C133.178 17.7595 133.699 18.5281 134.075 19.4164C134.468 20.3046 134.664 21.2612 134.664 22.286C134.664 22.6277 134.63 22.9437 134.562 23.234H122.468C122.519 23.849 122.682 24.4127 122.955 24.9251C123.245 25.4375 123.604 25.8902 124.031 26.2831C124.475 26.6589 124.988 26.9578 125.568 27.1798C126.149 27.3848 126.764 27.4873 127.413 27.4873C128.353 27.4873 129.198 27.2567 129.95 26.7955C130.719 26.3343 131.308 25.6938 131.718 24.8739H134.254ZM132.23 21.1074C131.94 19.8605 131.359 18.8954 130.488 18.2121C129.634 17.5118 128.575 17.1616 127.311 17.1616C126.081 17.1616 125.03 17.5203 124.159 18.2378C123.288 18.9381 122.724 19.8946 122.468 21.1074H132.23Z" fill="black"/>
<path d="M113.518 17.469H110.93V15.2912H113.518V10.423H115.9V15.2912H118.693V17.469H115.9V29.3577H113.518V17.469Z" fill="black"/>
<path d="M96.6221 15.2912H98.9281V16.9566C99.5259 16.2563 100.175 15.7524 100.875 15.4449C101.576 15.1204 102.378 14.9581 103.284 14.9581C107.161 14.9581 109.1 17.2812 109.1 21.9273V29.3577H106.692V22.1323C106.692 18.8185 105.428 17.1616 102.899 17.1616C100.32 17.1616 99.0305 18.7673 99.0305 21.9786V29.3577H96.6221V15.2912Z" fill="black"/>
<path d="M90.7277 10.423H93.1618V29.3577H90.7277V10.423Z" fill="black"/>
<path d="M78.1638 10.423H80.4954L88.5663 29.3577H85.9016L83.3907 23.4646H75.2685L72.7319 29.3577H70.1185L78.1638 10.423ZM82.4427 21.2098L79.3424 13.4976L76.1909 21.2098H82.4427Z" fill="black"/>
<defs>
<linearGradient id="paint0_linear_426_1916" x1="46.9036" y1="17.5296" x2="12.469" y2="35.3857" gradientUnits="userSpaceOnUse">
<stop stop-color="#437CFF"/>
<stop offset="1" stop-color="#65EDFF"/>
</linearGradient>
<linearGradient id="paint1_linear_426_1916" x1="46.9036" y1="17.5296" x2="12.469" y2="35.3857" gradientUnits="userSpaceOnUse">
<stop stop-color="#437CFF"/>
<stop offset="1" stop-color="#65EDFF"/>
</linearGradient>
<linearGradient id="paint2_linear_426_1916" x1="46.9036" y1="17.5296" x2="12.469" y2="35.3857" gradientUnits="userSpaceOnUse">
<stop stop-color="#437CFF"/>
<stop offset="1" stop-color="#65EDFF"/>
</linearGradient>
<linearGradient id="paint3_linear_426_1916" x1="46.9036" y1="17.5296" x2="12.469" y2="35.3857" gradientUnits="userSpaceOnUse">
<stop stop-color="#437CFF"/>
<stop offset="1" stop-color="#65EDFF"/>
</linearGradient>
<linearGradient id="paint4_linear_426_1916" x1="46.9036" y1="17.5296" x2="12.469" y2="35.3857" gradientUnits="userSpaceOnUse">
<stop stop-color="#437CFF"/>
<stop offset="1" stop-color="#65EDFF"/>
</linearGradient>
<linearGradient id="paint5_linear_426_1916" x1="46.9036" y1="17.5296" x2="12.469" y2="35.3857" gradientUnits="userSpaceOnUse">
<stop stop-color="#437CFF"/>
<stop offset="1" stop-color="#65EDFF"/>
</linearGradient>
<linearGradient id="paint6_linear_426_1916" x1="46.9036" y1="17.5296" x2="12.469" y2="35.3857" gradientUnits="userSpaceOnUse">
<stop stop-color="#437CFF"/>
<stop offset="1" stop-color="#65EDFF"/>
</linearGradient>
<linearGradient id="paint7_linear_426_1916" x1="46.9036" y1="17.5296" x2="12.469" y2="35.3857" gradientUnits="userSpaceOnUse">
<stop stop-color="#437CFF"/>
<stop offset="1" stop-color="#65EDFF"/>
</linearGradient>
</defs>
</svg>
