<svg width="30" height="14" viewBox="0 0 30 14" fill="none" xmlns="http://www.w3.org/2000/svg">
<mask id="path-1-inside-1_163_729" fill="white">
<path fill-rule="evenodd" clip-rule="evenodd" d="M24.6463 5.01385H15.822C13.8283 5.01385 12.2121 6.63007 12.2121 8.62377V12.4342H24.6463C26.64 12.4342 28.2562 10.818 28.2562 8.82432V8.62377C28.2562 6.63007 26.64 5.01385 24.6463 5.01385ZM15.822 3.81055C13.1637 3.81055 11.0088 5.9655 11.0088 8.62377V13.6375H24.6463C27.3045 13.6375 29.4595 11.4826 29.4595 8.82432V8.62377C29.4595 5.9655 27.3045 3.81055 24.6463 3.81055H15.822Z"/>
</mask>
<path fill-rule="evenodd" clip-rule="evenodd" d="M24.6463 5.01385H15.822C13.8283 5.01385 12.2121 6.63007 12.2121 8.62377V12.4342H24.6463C26.64 12.4342 28.2562 10.818 28.2562 8.82432V8.62377C28.2562 6.63007 26.64 5.01385 24.6463 5.01385ZM15.822 3.81055C13.1637 3.81055 11.0088 5.9655 11.0088 8.62377V13.6375H24.6463C27.3045 13.6375 29.4595 11.4826 29.4595 8.82432V8.62377C29.4595 5.9655 27.3045 3.81055 24.6463 3.81055H15.822Z" fill="#438EFF"/>
<path d="M12.2121 12.4342H1.98008V22.6663H12.2121V12.4342ZM11.0088 13.6375H0.776775V23.8696H11.0088V13.6375ZM15.822 5.01385V15.2459H24.6463V5.01385V-5.21816H15.822V5.01385ZM12.2121 8.62377H22.4441C22.4441 12.2811 19.4793 15.2459 15.822 15.2459V5.01385V-5.21816C8.17733 -5.21816 1.98008 0.979082 1.98008 8.62377H12.2121ZM12.2121 12.4342H22.4441V8.62377H12.2121H1.98008V12.4342H12.2121ZM24.6463 12.4342V2.20223H12.2121V12.4342V22.6663H24.6463V12.4342ZM28.2562 8.82432H18.0242C18.0242 5.16704 20.989 2.20223 24.6463 2.20223V12.4342V22.6663C32.2909 22.6663 38.4882 16.469 38.4882 8.82432H28.2562ZM28.2562 8.62377H18.0242V8.82432H28.2562H38.4882V8.62377H28.2562ZM24.6463 5.01385V15.2459C20.989 15.2459 18.0242 12.2811 18.0242 8.62377H28.2562H38.4882C38.4882 0.979082 32.2909 -5.21816 24.6463 -5.21816V5.01385ZM11.0088 8.62377H21.2408C21.2408 11.6165 18.8147 14.0426 15.822 14.0426V3.81055V-6.42147C7.51276 -6.42147 0.776775 0.314515 0.776775 8.62377H11.0088ZM29.4595 8.82432H19.2275C19.2275 5.83161 21.6535 3.40553 24.6463 3.40553V13.6375V23.8696C32.9555 23.8696 39.6915 17.1336 39.6915 8.82432H29.4595ZM29.4595 8.62377H19.2275V8.82432H29.4595H39.6915V8.62377H29.4595ZM24.6463 3.81055V14.0426C21.6535 14.0426 19.2275 11.6165 19.2275 8.62377H29.4595H39.6915C39.6915 0.314516 32.9555 -6.42147 24.6463 -6.42147V3.81055ZM15.822 3.81055V14.0426H24.6463V3.81055V-6.42147H15.822V3.81055ZM11.0088 13.6375H21.2408V8.62377H11.0088H0.776775V13.6375H11.0088ZM24.6463 13.6375V3.40553H11.0088V13.6375V23.8696H24.6463V13.6375Z" fill="#438EFF" mask="url(#path-1-inside-1_163_729)"/>
<path d="M16.627 8.2735C16.9312 8.27374 17.1777 8.52099 17.1777 8.82526C17.1775 9.12932 16.931 9.3758 16.627 9.37604C16.3227 9.37604 16.0754 9.12947 16.0752 8.82526C16.0752 8.52084 16.3225 8.2735 16.627 8.2735Z" fill="#438EFF" stroke="#438EFF" stroke-width="1.70534"/>
<path d="M23.644 8.2735C23.9483 8.27374 24.1948 8.52099 24.1948 8.82526C24.1946 9.12932 23.9481 9.3758 23.644 9.37604C23.3398 9.37604 23.0925 9.12947 23.0923 8.82526C23.0923 8.52084 23.3396 8.2735 23.644 8.2735Z" fill="#438EFF" stroke="#438EFF" stroke-width="1.70534"/>
<path d="M20.2339 0.852539C20.5381 0.852777 20.7847 1.10003 20.7847 1.4043C20.7844 1.70836 20.538 1.95484 20.2339 1.95508C19.9296 1.95508 19.6824 1.70851 19.6821 1.4043C19.6821 1.09988 19.9295 0.852539 20.2339 0.852539Z" fill="#438EFF" stroke="#438EFF" stroke-width="1.70534"/>
<mask id="path-6-inside-2_163_729" fill="white">
<path d="M19.6338 2.20642H20.8371V3.20918H19.6338V2.20642Z"/>
</mask>
<path d="M19.6338 2.20642H20.8371V3.20918H19.6338V2.20642Z" fill="#438EFF"/>
<path d="M19.6338 2.20642V0.501085H17.9285V2.20642H19.6338ZM20.8371 2.20642H22.5424V0.501085H20.8371V2.20642ZM20.8371 3.20918V4.91451H22.5424V3.20918H20.8371ZM19.6338 3.20918H17.9285V4.91451H19.6338V3.20918ZM19.6338 2.20642V3.91176H20.8371V2.20642V0.501085H19.6338V2.20642ZM20.8371 2.20642H19.1318V3.20918H20.8371H22.5424V2.20642H20.8371ZM20.8371 3.20918V1.50384H19.6338V3.20918V4.91451H20.8371V3.20918ZM19.6338 3.20918H21.3391V2.20642H19.6338H17.9285V3.20918H19.6338Z" fill="#438EFF" mask="url(#path-6-inside-2_163_729)"/>
<path d="M6.6543 3.11444C7.3332 3.90417 7.8144 5.00614 7.81445 6.46893V9.5578C7.4391 9.25846 7.05205 8.97083 6.6543 8.69257V3.11444Z" fill="#438EFF" stroke="#438EFF" stroke-width="3.41067"/>
<mask id="path-9-inside-3_163_729" fill="white">
<path d="M4.35561 10.0207V2.56659C3.96276 1.84616 2.88211 1.12573 2.28369 0.975769V10.9549C4.26928 11.5046 6.49389 12.3584 8.73847 13.6304C7.61618 12.3584 5.82322 10.8686 4.35561 10.0207Z"/>
</mask>
<path d="M4.35561 10.0207V2.56659C3.96276 1.84616 2.88211 1.12573 2.28369 0.975769V10.9549C4.26928 11.5046 6.49389 12.3584 8.73847 13.6304C7.61618 12.3584 5.82322 10.8686 4.35561 10.0207Z" fill="#438EFF"/>
<path d="M4.35561 2.56659H7.76628V1.6971L7.35002 0.933737L4.35561 2.56659ZM4.35561 10.0207H0.944938V11.9891L2.64931 12.9739L4.35561 10.0207ZM8.73847 13.6304L7.05695 16.5977L11.2959 11.3738L8.73847 13.6304ZM2.28369 10.9549H-1.12698V13.5497L1.37371 14.242L2.28369 10.9549ZM2.28369 0.975769L3.11273 -2.33261L-1.12698 -3.39503V0.975769H2.28369ZM4.35561 2.56659H0.944938V10.0207H4.35561H7.76628V2.56659H4.35561ZM4.35561 10.0207L2.64931 12.9739C3.78024 13.6273 5.28943 14.8765 6.18101 15.8869L8.73847 13.6304L11.2959 11.3738C9.94292 9.84039 7.86619 8.11 6.06191 7.06751L4.35561 10.0207ZM8.73847 13.6304L10.42 10.663C7.90665 9.23879 5.4186 8.28384 3.19368 7.66789L2.28369 10.9549L1.37371 14.242C3.11996 14.7254 5.08113 15.4781 7.05695 16.5977L8.73847 13.6304ZM2.28369 10.9549H5.69436V0.975769H2.28369H-1.12698V10.9549H2.28369ZM2.28369 0.975769L1.45465 4.28415C1.39584 4.26941 1.34997 4.25521 1.31828 4.2446C1.28617 4.23385 1.26281 4.22483 1.24857 4.21907C1.22156 4.20813 1.21501 4.20389 1.22799 4.21066C1.23987 4.21686 1.26133 4.22874 1.29004 4.2467C1.31846 4.26448 1.34921 4.28522 1.38015 4.30789C1.41113 4.33061 1.43841 4.35242 1.46084 4.37172C1.48355 4.39125 1.49666 4.40423 1.50105 4.40876C1.50598 4.41385 1.49509 4.40328 1.47348 4.37515C1.45269 4.34808 1.41052 4.28988 1.3612 4.19944L4.35561 2.56659L7.35002 0.933737C6.81299 -0.0510939 5.99799 -0.764761 5.41333 -1.19339C4.83461 -1.61767 4.00683 -2.10856 3.11273 -2.33261L2.28369 0.975769Z" fill="#438EFF" mask="url(#path-9-inside-3_163_729)"/>
<mask id="path-11-inside-4_163_729" fill="white">
<path d="M1.57841 11.2657C2.9155 11.6229 5.28217 12.344 7.95634 13.6301C4.83647 12.6298 2.74563 12.1161 0 11.7261V2.15466C0.463135 2.25758 1.23503 2.6178 1.57841 3.02947V11.2657Z"/>
</mask>
<path d="M1.57841 11.2657C2.9155 11.6229 5.28217 12.344 7.95634 13.6301C4.83647 12.6298 2.74563 12.1161 0 11.7261V2.15466C0.463135 2.25758 1.23503 2.6178 1.57841 3.02947V11.2657Z" fill="#438EFF"/>
<path d="M7.95634 13.6301L6.91506 16.8779L9.43452 10.5564L7.95634 13.6301ZM1.57841 11.2657H-1.83226V13.8848L0.698054 14.5608L1.57841 11.2657ZM1.57841 3.02947H4.98909V1.79374L4.19755 0.844797L1.57841 3.02947ZM0 2.15466L0.739878 -1.17479L-3.41067 -2.09713V2.15466H0ZM0 11.7261H-3.41067V14.6866L-0.479572 15.1029L0 11.7261ZM7.95634 13.6301L9.43452 10.5564C6.51003 9.14996 3.92777 8.36309 2.45878 7.97061L1.57841 11.2657L0.698054 14.5608C1.90323 14.8828 4.05431 15.5381 6.47816 16.7038L7.95634 13.6301ZM1.57841 11.2657H4.98909V3.02947H1.57841H-1.83226V11.2657H1.57841ZM1.57841 3.02947L4.19755 0.844797C3.61084 0.141412 2.88113 -0.300948 2.42063 -0.542926C1.92071 -0.805621 1.32668 -1.04439 0.739878 -1.17479L0 2.15466L-0.739878 5.48412C-0.823495 5.46553 -0.851376 5.45228 -0.82539 5.46223C-0.806314 5.46953 -0.77847 5.4818 -0.752407 5.4955C-0.724082 5.51038 -0.727207 5.51147 -0.757662 5.48926C-0.77449 5.47698 -0.807692 5.45173 -0.852214 5.41161C-0.895767 5.37236 -0.962936 5.3074 -1.04072 5.21415L1.57841 3.02947ZM0 2.15466H-3.41067V11.7261H0H3.41067V2.15466H0ZM0 11.7261L-0.479572 15.1029C2.03107 15.4595 3.93008 15.9209 6.91506 16.8779L7.95634 13.6301L8.99762 10.3823C5.74287 9.33876 3.46018 8.77264 0.479572 8.34933L0 11.7261Z" fill="#438EFF" mask="url(#path-11-inside-4_163_729)"/>
</svg>
