<svg width="46" height="22" viewBox="0 0 46 22" fill="none" xmlns="http://www.w3.org/2000/svg">
<mask id="path-1-inside-1_191_687" fill="white">
<path fill-rule="evenodd" clip-rule="evenodd" d="M38.2335 8.08832H24.5447C21.452 8.08832 18.9448 10.6956 18.9448 13.9118V20.0588H38.2335C41.3263 20.0588 43.8335 17.4516 43.8335 14.2353V13.9118C43.8335 10.6956 41.3263 8.08832 38.2335 8.08832ZM24.5447 6.14716C20.421 6.14716 17.0781 9.62351 17.0781 13.9118V22H38.2335C42.3572 22 45.7002 18.5237 45.7002 14.2353V13.9118C45.7002 9.62351 42.3572 6.14716 38.2335 6.14716H24.5447Z"/>
</mask>
<path fill-rule="evenodd" clip-rule="evenodd" d="M38.2335 8.08832H24.5447C21.452 8.08832 18.9448 10.6956 18.9448 13.9118V20.0588H38.2335C41.3263 20.0588 43.8335 17.4516 43.8335 14.2353V13.9118C43.8335 10.6956 41.3263 8.08832 38.2335 8.08832ZM24.5447 6.14716C20.421 6.14716 17.0781 9.62351 17.0781 13.9118V22H38.2335C42.3572 22 45.7002 18.5237 45.7002 14.2353V13.9118C45.7002 9.62351 42.3572 6.14716 38.2335 6.14716H24.5447Z" fill="#438EFF"/>
<path d="M18.9448 20.0588H8.71277V30.2909H18.9448V20.0588ZM17.0781 22H6.84611V32.232H17.0781V22ZM24.5447 8.08832V18.3203H38.2335V8.08832V-2.14369H24.5447V8.08832ZM18.9448 13.9118H29.1768C29.1768 15.9654 27.4767 18.3203 24.5447 18.3203V8.08832V-2.14369C15.4272 -2.14369 8.71277 5.42577 8.71277 13.9118H18.9448ZM18.9448 20.0588H29.1768V13.9118H18.9448H8.71277V20.0588H18.9448ZM38.2335 20.0588V9.82683H18.9448V20.0588V30.2909H38.2335V20.0588ZM43.8335 14.2353H33.6015C33.6015 12.1818 35.3016 9.82683 38.2335 9.82683V20.0588V30.2909C47.3511 30.2909 54.0655 22.7214 54.0655 14.2353H43.8335ZM43.8335 13.9118H33.6015V14.2353H43.8335H54.0655V13.9118H43.8335ZM38.2335 8.08832V18.3203C35.3016 18.3203 33.6015 15.9654 33.6015 13.9118H43.8335H54.0655C54.0655 5.42577 47.3511 -2.14369 38.2335 -2.14369V8.08832ZM17.0781 13.9118H27.3101C27.3101 14.8933 26.4458 16.3792 24.5447 16.3792V6.14716V-4.08486C14.3963 -4.08486 6.84611 4.35369 6.84611 13.9118H17.0781ZM45.7002 14.2353H35.4681C35.4681 13.2538 36.3325 11.768 38.2335 11.768V22V32.232C48.382 32.232 55.9322 23.7935 55.9322 14.2353H45.7002ZM45.7002 13.9118H35.4681V14.2353H45.7002H55.9322V13.9118H45.7002ZM38.2335 6.14716V16.3792C36.3325 16.3792 35.4681 14.8933 35.4681 13.9118H45.7002H55.9322C55.9322 4.35369 48.382 -4.08486 38.2335 -4.08486V6.14716ZM24.5447 6.14716V16.3792H38.2335V6.14716V-4.08486H24.5447V6.14716ZM17.0781 22H27.3101V13.9118H17.0781H6.84611V22H17.0781ZM38.2335 22V11.768H17.0781V22V32.232H38.2335V22Z" fill="#438EFF" mask="url(#path-1-inside-1_191_687)"/>
<path d="M25.792 12.824C26.4927 12.824 27.1172 13.4245 27.1172 14.2361C27.1172 15.0477 26.4927 15.6482 25.792 15.6482C25.0913 15.6482 24.4668 15.0477 24.4668 14.2361C24.4668 13.4245 25.0913 12.824 25.792 12.824Z" fill="#438EFF" stroke="#438EFF" stroke-width="1.70534"/>
<path d="M36.6777 12.824C37.3784 12.824 38.0029 13.4245 38.0029 14.2361C38.0029 15.0477 37.3784 15.6482 36.6777 15.6482C35.9771 15.6482 35.3525 15.0477 35.3525 14.2361C35.3526 13.4245 35.9771 12.824 36.6777 12.824Z" fill="#438EFF" stroke="#438EFF" stroke-width="1.70534"/>
<path d="M31.3877 0.852539C32.0884 0.852539 32.7129 1.45307 32.7129 2.26465C32.7129 3.07625 32.0884 3.67676 31.3877 3.67676C30.687 3.67674 30.0625 3.07624 30.0625 2.26465C30.0625 1.45308 30.687 0.852555 31.3877 0.852539Z" fill="#438EFF" stroke="#438EFF" stroke-width="1.70534"/>
<mask id="path-6-inside-2_191_687" fill="white">
<path d="M30.457 3.55933H32.3237V5.17696H30.457V3.55933Z"/>
</mask>
<path d="M30.457 3.55933H32.3237V5.17696H30.457V3.55933Z" fill="#438EFF"/>
<path d="M30.457 3.55933V1.85399H28.7517V3.55933H30.457ZM32.3237 3.55933H34.029V1.85399H32.3237V3.55933ZM32.3237 5.17696V6.8823H34.029V5.17696H32.3237ZM30.457 5.17696H28.7517V6.8823H30.457V5.17696ZM30.457 3.55933V5.26466H32.3237V3.55933V1.85399H30.457V3.55933ZM32.3237 3.55933H30.6184V5.17696H32.3237H34.029V3.55933H32.3237ZM32.3237 5.17696V3.47163H30.457V5.17696V6.8823H32.3237V5.17696ZM30.457 5.17696H32.1624V3.55933H30.457H28.7517V5.17696H30.457Z" fill="#438EFF" mask="url(#path-6-inside-2_191_687)"/>
<path d="M9.38281 2.81097C11.3523 4.19904 13.0625 6.66129 13.0625 10.436V17.5825C11.9197 16.5056 10.6916 15.5169 9.38281 14.5922V2.81097Z" fill="#438EFF" stroke="#438EFF" stroke-width="3.41067"/>
<mask id="path-9-inside-3_191_687" fill="white">
<path d="M6.75708 16.1652V4.14034C6.14765 2.97814 4.47128 1.81594 3.54297 1.57404V17.6723C6.62315 18.5591 10.0741 19.9365 13.5561 21.9884C11.8151 19.9365 9.03373 17.5332 6.75708 16.1652Z"/>
</mask>
<path d="M6.75708 16.1652V4.14034C6.14765 2.97814 4.47128 1.81594 3.54297 1.57404V17.6723C6.62315 18.5591 10.0741 19.9365 13.5561 21.9884C11.8151 19.9365 9.03373 17.5332 6.75708 16.1652Z" fill="#438EFF"/>
<path d="M6.75708 4.14034H10.1677V3.30035L9.77766 2.55643L6.75708 4.14034ZM6.75708 16.1652H3.3464V18.0949L5.00048 19.0888L6.75708 16.1652ZM13.5561 21.9884L11.8245 24.9268L16.1568 19.7818L13.5561 21.9884ZM3.54297 17.6723H0.132298V20.2396L2.59939 20.9499L3.54297 17.6723ZM3.54297 1.57404L4.40303 -1.72641L0.132298 -2.83933V1.57404H3.54297ZM6.75708 4.14034H3.3464V16.1652H6.75708H10.1677V4.14034H6.75708ZM6.75708 16.1652L5.00048 19.0888C6.93763 20.2527 9.4385 22.4072 10.9554 24.195L13.5561 21.9884L16.1568 19.7818C14.1917 17.4658 11.1298 14.8136 8.51367 13.2417L6.75708 16.1652ZM13.5561 21.9884L15.2877 19.0499C11.5339 16.8379 7.81393 15.3527 4.48655 14.3948L3.54297 17.6723L2.59939 20.9499C5.43238 21.7655 8.61436 23.0351 11.8245 24.9268L13.5561 21.9884ZM3.54297 17.6723H6.95364V1.57404H3.54297H0.132298V17.6723H3.54297ZM3.54297 1.57404L2.6829 4.87448C2.55765 4.84184 2.57083 4.82814 2.72559 4.91204C2.85799 4.98381 3.02638 5.09069 3.20174 5.22439C3.37746 5.35836 3.52551 5.49282 3.63315 5.60833C3.74894 5.73258 3.76418 5.77704 3.73649 5.72424L6.75708 4.14034L9.77766 2.55643C9.14737 1.35444 8.14352 0.414303 7.33747 -0.200232C6.54485 -0.804519 5.47927 -1.44596 4.40303 -1.72641L3.54297 1.57404Z" fill="#438EFF" mask="url(#path-9-inside-3_191_687)"/>
<mask id="path-11-inside-4_191_687" fill="white">
<path d="M2.44855 18.1738C4.52273 18.75 8.19407 19.9133 12.3424 21.988C7.50268 20.3744 4.25921 19.5455 0 18.9165V3.47589C0.718448 3.64192 1.91586 4.22302 2.44855 4.88713V18.1738Z"/>
</mask>
<path d="M2.44855 18.1738C4.52273 18.75 8.19407 19.9133 12.3424 21.988C7.50268 20.3744 4.25921 19.5455 0 18.9165V3.47589C0.718448 3.64192 1.91586 4.22302 2.44855 4.88713V18.1738Z" fill="#438EFF"/>
<path d="M12.3424 21.988L11.2637 25.2235L13.868 18.9375L12.3424 21.988ZM2.44855 18.1738H-0.962123V20.766L1.53552 21.46L2.44855 18.1738ZM2.44855 4.88713H5.85922V3.68828L5.1091 2.75309L2.44855 4.88713ZM0 3.47589L0.767942 0.152799L-3.41067 -0.812848V3.47589H0ZM0 18.9165H-3.41067V21.8605L-0.498314 22.2906L0 18.9165ZM12.3424 21.988L13.868 18.9375C9.4646 16.7353 5.57237 15.5018 3.36158 14.8876L2.44855 18.1738L1.53552 21.46C3.4731 21.9983 6.92355 23.0913 10.8169 25.0384L12.3424 21.988ZM2.44855 18.1738H5.85922V4.88713H2.44855H-0.962123V18.1738H2.44855ZM2.44855 4.88713L5.1091 2.75309C4.43731 1.91556 3.55856 1.34555 2.92944 1.00177C2.2654 0.638904 1.49416 0.320622 0.767942 0.152799L0 3.47589L-0.767942 6.79898C-0.794377 6.79287 -0.752575 6.80131 -0.650462 6.84196C-0.555617 6.8797 -0.447013 6.93007 -0.341569 6.98769C-0.234039 7.04645 -0.158991 7.09679 -0.118734 7.12733C-0.0692123 7.16488 -0.12005 7.13581 -0.212005 7.02117L2.44855 4.88713ZM0 3.47589H-3.41067V18.9165H0H3.41067V3.47589H0ZM0 18.9165L-0.498314 22.2906C3.51723 22.8836 6.56243 23.6561 11.2637 25.2235L12.3424 21.988L13.4212 18.7524C8.44293 17.0926 5.0012 16.2075 0.498314 15.5424L0 18.9165Z" fill="#438EFF" mask="url(#path-11-inside-4_191_687)"/>
</svg>
