<svg width="28" height="22" viewBox="0 0 28 22" fill="none" xmlns="http://www.w3.org/2000/svg">
<path d="M5.18555 0.75H22.8145C24.1972 0.75 25.2927 1.21194 26.041 1.96777C26.79 2.7244 27.25 3.83502 27.25 5.23828V16.7617C27.25 18.165 26.79 19.2756 26.041 20.0322C25.2927 20.7881 24.1972 21.25 22.8145 21.25H5.18555C3.80284 21.25 2.70729 20.7881 1.95898 20.0322C1.21 19.2756 0.75 18.165 0.75 16.7617V5.23828C0.75 3.83502 1.21 2.7244 1.95898 1.96777C2.70729 1.21194 3.80285 0.75 5.18555 0.75Z" stroke="black" stroke-width="1.5" stroke-linecap="round"/>
<path d="M11 21V1" stroke="black" stroke-width="1.5" stroke-linecap="round"/>
<path d="M4 5H6H8M4 8H8" stroke="black" stroke-width="1.5" stroke-linecap="round"/>
<path d="M18 8L15.0707 10.9293C15.0317 10.9683 15.0317 11.0317 15.0707 11.0707L18 14" stroke="black" stroke-width="1.5" stroke-linecap="round"/>
</svg>
