<svg width="24" height="22" viewBox="0 0 24 22" fill="none" xmlns="http://www.w3.org/2000/svg">
<path d="M14 1C10.6389 1 8.2 1 6 1C3 1 1 3 1 6C1 8.54545 1 9.70909 1 12C1 15 3 17 6 17H6.63786C6.69309 17 6.73786 17.0448 6.73786 17.1V20.7192C6.73786 20.8132 6.85591 20.8552 6.91536 20.7824L9.96999 17.0368C9.98898 17.0135 10.0174 17 10.0475 17H18C21 17 23 15 23 12C23 9.85377 23 12.0651 23 10" stroke="black" stroke-width="1.5" stroke-linecap="round"/>
<path d="M14 5.495H23" stroke="black" stroke-width="1.5" stroke-linecap="round"/>
<path d="M18.4951 10L18.4951 1" stroke="black" stroke-width="1.5" stroke-linecap="round"/>
</svg>
