<svg width="22" height="22" viewBox="0 0 22 22" fill="none" xmlns="http://www.w3.org/2000/svg">
<path d="M21.731 20.4359L16.2594 14.9643C17.7505 13.1407 18.4836 10.8137 18.3071 8.46475C18.1306 6.11577 17.058 3.92447 15.3112 2.34413C13.5644 0.763789 11.2769 -0.0846942 8.92206 -0.025815C6.56719 0.0330642 4.32503 0.994801 2.65937 2.66047C0.993702 4.32613 0.0319656 6.56829 -0.0269136 8.92316C-0.0857928 11.278 0.762691 13.5655 2.34303 15.3123C3.92338 17.0591 6.11467 18.1317 8.46365 18.3082C10.8126 18.4847 13.1396 17.7516 14.9632 16.2605L20.4348 21.7321C20.6077 21.8991 20.8392 21.9914 21.0796 21.9894C21.3199 21.9873 21.5499 21.8909 21.7198 21.7209C21.8898 21.551 21.9862 21.321 21.9883 21.0807C21.9903 20.8403 21.898 20.6088 21.731 20.4359ZM9.16622 16.5007C7.71583 16.5007 6.298 16.0706 5.09204 15.2648C3.88608 14.459 2.94615 13.3137 2.39111 11.9737C1.83606 10.6337 1.69084 9.15919 1.9738 7.73666C2.25676 6.31413 2.95519 5.00746 3.98077 3.98187C5.00636 2.95629 6.31303 2.25785 7.73556 1.9749C9.15809 1.69194 10.6326 1.83716 11.9726 2.3922C13.3126 2.94725 14.4579 3.88718 15.2637 5.09314C16.0695 6.2991 16.4996 7.71693 16.4996 9.16732C16.4974 11.1116 15.7241 12.9756 14.3493 14.3504C12.9745 15.7252 11.1105 16.4985 9.16622 16.5007Z" fill="black"/>
</svg>
