<svg width="24" height="25" viewBox="0 0 24 25" fill="none" xmlns="http://www.w3.org/2000/svg">
<g clip-path="url(#clip0_681_361)">
<path d="M12.001 0.160126C9.62761 0.160126 7.30753 0.875742 5.33414 2.21648C3.36075 3.55722 1.82268 5.46286 0.914428 7.69243C0.00617599 9.92199 -0.231464 12.3753 0.231559 14.7422C0.694581 17.1091 1.83747 19.2833 3.5157 20.9897C5.19393 22.6961 7.33213 23.8582 9.6599 24.329C11.9877 24.7998 14.4005 24.5582 16.5932 23.6347C18.7859 22.7112 20.66 21.1473 21.9786 19.1407C23.2972 17.1341 24.001 14.7751 24.001 12.3618C23.9975 9.12679 22.7322 6.02528 20.4825 3.73778C18.2328 1.45028 15.1825 0.163625 12.001 0.160126V0.160126ZM20.648 7.27777H17.427C16.7059 5.57867 15.7566 3.98951 14.606 2.55572C17.1525 3.2603 19.3233 4.95688 20.648 7.27777ZM16.501 12.3618C16.4928 13.3971 16.3323 14.4252 16.025 15.4122H7.97698C7.66963 14.4252 7.50919 13.3971 7.50098 12.3618C7.50919 11.3266 7.66963 10.2984 7.97698 9.31139H16.025C16.3323 10.2984 16.4928 11.3266 16.501 12.3618ZM8.77898 17.4458H15.223C14.3742 19.1497 13.2891 20.7208 12.001 22.1109C10.7124 20.7212 9.62722 19.1501 8.77898 17.4458ZM8.77898 7.27777C9.62775 5.57388 10.7128 4.0028 12.001 2.61266C13.2896 4.00241 14.3747 5.57356 15.223 7.27777H8.77898ZM9.40098 2.55572C8.24864 3.9892 7.29757 5.57838 6.57498 7.27777H3.35398C4.67984 4.95583 6.85264 3.2591 9.40098 2.55572ZM2.46198 9.31139H5.90098C5.64174 10.307 5.50734 11.3319 5.50098 12.3618C5.50734 13.3917 5.64174 14.4166 5.90098 15.4122H2.46198C1.84732 13.4266 1.84732 11.297 2.46198 9.31139ZM3.35398 17.4458H6.57498C7.29757 19.1452 8.24864 20.7344 9.40098 22.1679C6.85264 21.4645 4.67984 19.7678 3.35398 17.4458ZM14.606 22.1679C15.7566 20.7341 16.7059 19.1449 17.427 17.4458H20.648C19.3233 19.7667 17.1525 21.4633 14.606 22.1679ZM21.54 15.4122H18.101C18.3602 14.4166 18.4946 13.3917 18.501 12.3618C18.4946 11.3319 18.3602 10.307 18.101 9.31139H21.538C22.1526 11.297 22.1526 13.4266 21.538 15.4122H21.54Z" fill="black"/>
</g>
<defs>
<clipPath id="clip0_681_361">
<rect x="0.000976562" y="0.160126" width="24" height="24.4034" rx="12" fill="white"/>
</clipPath>
</defs>
</svg>
