<svg width="496" height="230" viewBox="0 0 496 230" fill="none" xmlns="http://www.w3.org/2000/svg">
<mask id="mask0_426_2063" style="mask-type:alpha" maskUnits="userSpaceOnUse" x="0" y="0" width="496" height="230">
<path d="M266.345 69.2526H414.876C456.795 69.2527 490.777 103.234 490.777 145.153V148.529C490.777 190.448 456.795 224.429 414.876 224.429H190.445V145.153C190.445 103.234 224.427 69.2527 266.345 69.2526ZM266.345 79.275C229.962 79.2751 200.467 108.769 200.467 145.153V214.408H414.876C451.26 214.408 480.754 184.913 480.754 148.529V145.153C480.754 108.769 451.26 79.2752 414.876 79.275H266.345Z" fill="url(#paint0_linear_426_2063)" stroke="#0091FF" stroke-width="10.232"/>
<path d="M279.854 125.754C292.433 125.754 302.631 135.951 302.631 148.531C302.631 161.11 292.433 171.308 279.854 171.308C267.274 171.308 257.076 161.11 257.076 148.531C257.076 135.951 267.274 125.754 279.854 125.754Z" fill="#0091FF" stroke="#0091FF" stroke-width="1.70534"/>
<path d="M397.996 125.754C410.575 125.754 420.773 135.951 420.773 148.531C420.773 161.11 410.575 171.308 397.996 171.308C385.416 171.308 375.218 161.11 375.218 148.531C375.218 135.951 385.416 125.754 397.996 125.754Z" fill="#0091FF" stroke="#0091FF" stroke-width="1.70534"/>
<path d="M340.602 0.852539C353.181 0.852539 363.379 11.0504 363.379 23.6299C363.379 36.2094 353.181 46.4072 340.602 46.4072C328.022 46.4072 317.824 36.2094 317.824 23.6299C317.824 11.0504 328.022 0.852545 340.602 0.852539Z" fill="#0091FF" stroke="#0091FF" stroke-width="1.70534"/>
<path d="M349.881 37.9885V53.1614H331.332V37.9885H349.881Z" fill="#0091FF" stroke="#0091FF" stroke-width="1.70534"/>
<path d="M85.0259 3.08673C119.558 14.52 158.545 48.1533 158.545 108.885V224.642C137.852 199.766 113.335 179.057 85.0259 160.662V3.08673Z" fill="#0091FF" stroke="#0091FF" stroke-width="3.41067"/>
<path d="M40.1421 18.7103C44.6859 20.2781 50.5432 23.461 56.1636 27.5814C62.5606 32.2713 68.4198 38.0087 71.6069 43.641V169.648L72.4585 170.14C94.0708 182.627 119.952 203.481 138.645 222.816C104.369 204.385 70.6183 191.624 40.1421 183.096V18.7103Z" fill="#0091FF" stroke="#0091FF" stroke-width="3.41067"/>
<path d="M1.70508 38.4649C5.11887 39.4433 9.2555 41.093 13.2471 43.1905C17.8769 45.6234 22.1487 48.5729 24.8623 51.626V190.936L26.1279 191.273C44.3042 196.13 73.8229 204.994 108.238 219.659C69.6537 208.117 39.2403 201.292 1.70508 195.898V38.4649Z" fill="#0091FF" stroke="#0091FF" stroke-width="3.41067"/>
</mask>
<g mask="url(#mask0_426_2063)">
<rect x="-31.0781" y="-20.716" width="533.471" height="276.231" fill="url(#paint1_linear_426_2063)"/>
</g>
<defs>
<linearGradient id="paint0_linear_426_2063" x1="499.746" y1="150.31" x2="340.611" y2="229.546" gradientUnits="userSpaceOnUse">
<stop stop-color="#0091FF"/>
<stop offset="1" stop-color="#005799"/>
</linearGradient>
<linearGradient id="paint1_linear_426_2063" x1="376.363" y1="208.645" x2="-90.6793" y2="420.695" gradientUnits="userSpaceOnUse">
<stop stop-color="#0080FF"/>
<stop offset="1" stop-color="#00F2FF"/>
</linearGradient>
</defs>
</svg>
