<svg width="928" height="134" viewBox="0 0 928 134" fill="none" xmlns="http://www.w3.org/2000/svg">
<path d="M854.136 96.7332C854.136 91.4784 855.068 86.605 856.933 82.113C858.798 77.621 861.34 73.7223 864.561 70.4168C867.866 67.1114 871.723 64.5263 876.13 62.6617C880.622 60.7124 885.453 59.7377 890.623 59.7377C895.708 59.7377 900.455 60.7124 904.862 62.6617C909.269 64.6111 913.041 67.4504 916.177 71.1796V37.6166H928V131.568H916.558V120.126C912.998 124.787 909.269 128.135 905.37 130.169C901.472 132.203 896.768 133.22 891.259 133.22C886.004 133.22 881.088 132.288 876.511 130.423C872.019 128.559 868.121 126.016 864.815 122.795C861.51 119.49 858.882 115.634 856.933 111.226C855.068 106.734 854.136 101.903 854.136 96.7332ZM866.214 96.3518C866.214 99.9963 866.849 103.429 868.121 106.65C869.477 109.785 871.299 112.54 873.587 114.913C875.96 117.202 878.715 119.024 881.851 120.38C884.987 121.651 888.335 122.287 891.894 122.287C895.369 122.287 898.59 121.609 901.556 120.253C904.608 118.897 907.235 117.074 909.439 114.786C911.727 112.413 913.507 109.658 914.778 106.522C916.134 103.386 916.812 100.039 916.812 96.479C916.812 92.8345 916.134 89.4443 914.778 86.3084C913.507 83.1724 911.685 80.4603 909.311 78.1719C907.023 75.7988 904.269 73.9765 901.048 72.7052C897.912 71.3491 894.522 70.6711 890.877 70.6711C887.487 70.6711 884.266 71.3491 881.215 72.7052C878.249 74.0613 875.621 75.8835 873.333 78.1719C871.129 80.4603 869.392 83.1724 868.121 86.3084C866.849 89.4443 866.214 92.7921 866.214 96.3518Z" fill="black"/>
<path d="M843.139 109.32C841.953 112.88 840.215 116.143 837.927 119.109C835.723 121.991 833.138 124.491 830.172 126.61C827.205 128.729 823.942 130.382 820.382 131.568C816.907 132.67 813.263 133.221 809.449 133.221C804.279 133.221 799.406 132.288 794.829 130.424C790.337 128.475 786.396 125.847 783.005 122.542C779.615 119.236 776.945 115.38 774.996 110.973C773.132 106.481 772.199 101.65 772.199 96.4795C772.199 91.3942 773.132 86.6479 774.996 82.2407C776.945 77.8334 779.531 73.9771 782.751 70.6716C786.057 67.3662 789.913 64.7812 794.32 62.9165C798.728 61.0519 803.474 60.1196 808.559 60.1196C813.644 60.1196 818.391 61.0943 822.798 63.0437C827.29 64.9083 831.189 67.4933 834.494 70.7988C837.8 74.0194 840.385 77.8334 842.249 82.2407C844.199 86.6479 845.173 91.3942 845.173 96.4795C845.173 98.1746 845.004 99.7426 844.665 101.183H784.658C784.912 104.235 785.718 107.032 787.074 109.574C788.515 112.117 790.294 114.363 792.413 116.312C794.617 118.177 797.16 119.66 800.041 120.762C802.923 121.779 805.974 122.287 809.195 122.287C813.856 122.287 818.052 121.143 821.781 118.855C825.595 116.566 828.519 113.388 830.553 109.32H843.139ZM833.096 90.6314C831.655 84.4443 828.773 79.6557 824.451 76.2655C820.213 72.7905 814.958 71.053 808.686 71.053C802.584 71.053 797.371 72.8329 793.049 76.3926C788.726 79.8675 785.929 84.6138 784.658 90.6314H833.096Z" fill="black"/>
<path d="M660.319 37.6166H678.118L709.265 114.659L740.413 37.6166H758.084V131.568H746.006V52.364L714.223 131.568H704.053L672.397 52.364V131.568H660.319V37.6166Z" fill="black"/>
<path d="M619.062 61.7724H630.504V70.6716C632.453 66.9424 634.826 64.315 637.623 62.7894C640.505 61.1791 644.361 60.2891 649.192 60.1196V71.6887C637.072 72.621 631.012 79.2319 631.012 91.5213V131.568H619.062V61.7724Z" fill="black"/>
<path d="M605.133 109.32C603.947 112.88 602.209 116.143 599.921 119.109C597.717 121.991 595.132 124.491 592.166 126.61C589.2 128.729 585.937 130.382 582.377 131.568C578.902 132.67 575.257 133.221 571.443 133.221C566.273 133.221 561.4 132.288 556.823 130.424C552.331 128.475 548.39 125.847 545 122.542C541.61 119.236 538.94 115.38 536.991 110.973C535.126 106.481 534.194 101.65 534.194 96.4795C534.194 91.3942 535.126 86.6479 536.991 82.2407C538.94 77.8334 541.525 73.9771 544.746 70.6716C548.051 67.3662 551.907 64.7812 556.315 62.9165C560.722 61.0519 565.468 60.1196 570.553 60.1196C575.639 60.1196 580.385 61.0943 584.792 63.0437C589.284 64.9083 593.183 67.4933 596.488 70.7988C599.794 74.0194 602.379 77.8334 604.244 82.2407C606.193 86.6479 607.168 91.3942 607.168 96.4795C607.168 98.1746 606.998 99.7426 606.659 101.183H546.653C546.907 104.235 547.712 107.032 549.068 109.574C550.509 112.117 552.289 114.363 554.408 116.312C556.611 118.177 559.154 119.66 562.036 120.762C564.917 121.779 567.968 122.287 571.189 122.287C575.851 122.287 580.046 121.143 583.775 118.855C587.589 116.566 590.513 113.388 592.547 109.32H605.133ZM595.09 90.6314C593.649 84.4443 590.768 79.6557 586.445 76.2655C582.207 72.7905 576.952 71.053 570.681 71.053C564.578 71.053 559.366 72.8329 555.043 76.3926C550.721 79.8675 547.924 84.6138 546.653 90.6314H595.09Z" fill="black"/>
<path d="M502.267 72.5781H489.427V61.7718H502.267V37.6166H514.09V61.7718H527.948V72.5781H514.09V131.568H502.267V72.5781Z" fill="black"/>
<path d="M418.43 61.7724H429.872V70.036C432.838 66.561 436.059 64.0607 439.534 62.5351C443.009 60.9248 446.992 60.1196 451.484 60.1196C470.724 60.1196 480.343 71.6463 480.343 94.6997V131.568H468.393V95.7167C468.393 79.2743 462.121 71.053 449.577 71.053C436.779 71.053 430.38 79.02 430.38 94.9539V131.568H418.43V61.7724Z" fill="black"/>
<path d="M389.17 37.6166H401.248V131.568H389.17V37.6166Z" fill="black"/>
<path d="M326.846 37.6166H338.415L378.462 131.567H365.24L352.781 102.327H312.48L299.894 131.567H286.926L326.846 37.6166ZM348.077 91.1394L332.694 52.8725L317.057 91.1394H348.077Z" fill="black"/>
<mask id="mask0_426_323" style="mask-type:alpha" maskUnits="userSpaceOnUse" x="0" y="0" width="286" height="133">
<path d="M153.242 42.0169H238.698C261.616 42.0169 280.195 60.5959 280.195 83.5139V85.4554C280.195 108.373 261.616 126.952 238.698 126.952H111.745V83.5139C111.745 60.5959 130.324 42.0169 153.242 42.0169ZM153.242 43.4378C131.109 43.4378 113.166 61.3808 113.166 83.5139V125.532H238.698C260.831 125.532 278.774 107.588 278.774 85.4554V83.5139C278.774 61.3808 260.831 43.4378 238.698 43.4378H153.242Z" fill="url(#paint0_linear_426_323)" stroke="#0091FF" stroke-width="10.232"/>
<path d="M161.013 72.7141C168.051 72.7142 173.755 78.4197 173.755 85.4572C173.755 92.4946 168.051 98.1992 161.013 98.1994C153.976 98.1994 148.27 92.4947 148.27 85.4572C148.27 78.4196 153.976 72.7141 161.013 72.7141Z" fill="#0091FF" stroke="#0091FF" stroke-width="1.70534"/>
<path d="M228.986 72.7141C236.024 72.7142 241.729 78.4197 241.729 85.4572C241.728 92.4946 236.024 98.1992 228.986 98.1994C221.949 98.1994 216.243 92.4947 216.243 85.4572C216.243 78.4196 221.949 72.7141 228.986 72.7141Z" fill="#0091FF" stroke="#0091FF" stroke-width="1.70534"/>
<path d="M195.964 0.852539C203.002 0.852703 208.707 6.55819 208.707 13.5957C208.706 20.6331 203.002 26.3377 195.964 26.3379C188.927 26.3379 183.221 20.6332 183.221 13.5957C183.221 6.55809 188.927 0.852539 195.964 0.852539Z" fill="#0091FF" stroke="#0091FF" stroke-width="1.70534"/>
<path d="M200.941 22.2186V30.2245H190.993V22.2186H200.941Z" fill="#0091FF" stroke="#0091FF" stroke-width="1.70534"/>
<path d="M49.6436 2.78912C69.0347 9.5853 90.4941 28.6368 90.4941 62.6465V127.267C78.8884 113.657 65.2633 102.23 49.6436 92.044V2.78912Z" fill="#0091FF" stroke="#0091FF" stroke-width="3.41067"/>
<path d="M23.8198 11.8105C26.1856 12.7652 29.0746 14.3925 31.8853 16.4531C35.4623 19.0756 38.691 22.2374 40.4741 25.2998V98.0244L41.3267 98.5166C52.4581 104.948 65.584 115.272 75.9048 125.345C57.7816 115.997 40.0105 109.361 23.8198 104.795V11.8105Z" fill="#0091FF" stroke="#0091FF" stroke-width="3.41067"/>
<path d="M1.70508 23.1106C3.4162 23.6701 5.3758 24.4877 7.28418 25.4905C9.80989 26.8177 12.0947 28.3912 13.5801 29.9846V110.41L14.8457 110.748C22.9471 112.913 34.9748 116.465 49.1963 121.886C33.0134 117.495 18.5922 114.53 1.70508 112.082V23.1106Z" fill="#0091FF" stroke="#0091FF" stroke-width="3.41067"/>
</mask>
<g mask="url(#mask0_426_323)">
<rect x="-17.8809" y="-11.9189" width="306.931" height="158.929" fill="url(#paint1_linear_426_323)"/>
</g>
<defs>
<linearGradient id="paint0_linear_426_323" x1="287.528" y1="86.4802" x2="195.97" y2="132.068" gradientUnits="userSpaceOnUse">
<stop stop-color="#0091FF"/>
<stop offset="1" stop-color="#005799"/>
</linearGradient>
<linearGradient id="paint1_linear_426_323" x1="216.539" y1="120.044" x2="-52.1723" y2="242.046" gradientUnits="userSpaceOnUse">
<stop stop-color="#0077FF"/>
<stop offset="1" stop-color="#00F2FF"/>
</linearGradient>
</defs>
</svg>
